<svg width="587" height="126" viewBox="0 0 587 126" fill="none" xmlns="http://www.w3.org/2000/svg">
<rect y="50.2424" width="587" height="75.7576" rx="9" fill="#4D4D4D"/>
<rect y="50" width="573.956" height="76" rx="6" fill="#E786D7"/>
<path d="M24.35 22C26.3833 22.4333 28.0167 23.45 29.25 25.05C30.4833 26.6167 31.1 28.4167 31.1 30.45C31.1 33.3833 30.0667 35.7167 28 37.45C25.9667 39.15 23.1167 40 19.45 40H3.1V4.9H18.9C22.4667 4.9 25.25 5.71666 27.25 7.35C29.2833 8.98333 30.3 11.2 30.3 14C30.3 16.0667 29.75 17.7833 28.65 19.15C27.5833 20.5167 26.15 21.4667 24.35 22ZM11.65 19.1H17.25C18.65 19.1 19.7167 18.8 20.45 18.2C21.2167 17.5667 21.6 16.65 21.6 15.45C21.6 14.25 21.2167 13.3333 20.45 12.7C19.7167 12.0667 18.65 11.75 17.25 11.75H11.65V19.1ZM17.95 33.1C19.3833 33.1 20.4833 32.7833 21.25 32.15C22.05 31.4833 22.45 30.5333 22.45 29.3C22.45 28.0667 22.0333 27.1 21.2 26.4C20.4 25.7 19.2833 25.35 17.85 25.35H11.65V33.1H17.95ZM34.359 26C34.359 23.1333 34.8923 20.6167 35.959 18.45C37.059 16.2833 38.5423 14.6167 40.409 13.45C42.2757 12.2833 44.359 11.7 46.659 11.7C48.6257 11.7 50.3423 12.1 51.809 12.9C53.309 13.7 54.459 14.75 55.259 16.05V12.1H63.809V40H55.259V36.05C54.4257 37.35 53.259 38.4 51.759 39.2C50.2923 40 48.5757 40.4 46.609 40.4C44.3423 40.4 42.2757 39.8167 40.409 38.65C38.5423 37.45 37.059 35.7667 35.959 33.6C34.8923 31.4 34.359 28.8667 34.359 26ZM55.259 26.05C55.259 23.9167 54.659 22.2333 53.459 21C52.2923 19.7667 50.859 19.15 49.159 19.15C47.459 19.15 46.009 19.7667 44.809 21C43.6423 22.2 43.059 23.8667 43.059 26C43.059 28.1333 43.6423 29.8333 44.809 31.1C46.009 32.3333 47.459 32.95 49.159 32.95C50.859 32.95 52.2923 32.3333 53.459 31.1C54.659 29.8667 55.259 28.1833 55.259 26.05ZM68.2945 26.05C68.2945 23.15 68.8779 20.6167 70.0445 18.45C71.2445 16.2833 72.8945 14.6167 74.9945 13.45C77.1279 12.2833 79.5612 11.7 82.2945 11.7C85.7945 11.7 88.7112 12.6167 91.0445 14.45C93.4112 16.2833 94.9612 18.8667 95.6945 22.2H86.5945C85.8279 20.0667 84.3445 19 82.1445 19C80.5779 19 79.3279 19.6167 78.3945 20.85C77.4612 22.05 76.9945 23.7833 76.9945 26.05C76.9945 28.3167 77.4612 30.0667 78.3945 31.3C79.3279 32.5 80.5779 33.1 82.1445 33.1C84.3445 33.1 85.8279 32.0333 86.5945 29.9H95.6945C94.9612 33.1667 93.4112 35.7333 91.0445 37.6C88.6779 39.4667 85.7612 40.4 82.2945 40.4C79.5612 40.4 77.1279 39.8167 74.9945 38.65C72.8945 37.4833 71.2445 35.8167 70.0445 33.65C68.8779 31.4833 68.2945 28.95 68.2945 26.05ZM117.318 40L108.818 28.3V40H100.268V3H108.818V23.45L117.268 12.1H127.818L116.218 26.1L127.918 40H117.318ZM152.676 18.9V26H130.676V18.9H152.676ZM168.73 11.75V18.85H180.18V25.45H168.73V33.15H181.68V40H160.18V4.9H181.68V11.75H168.73ZM204.231 11.8C207.498 11.8 210.098 12.8667 212.031 15C213.998 17.1 214.981 20 214.981 23.7V40H206.481V24.85C206.481 22.9833 205.998 21.5333 205.031 20.5C204.064 19.4667 202.764 18.95 201.131 18.95C199.498 18.95 198.198 19.4667 197.231 20.5C196.264 21.5333 195.781 22.9833 195.781 24.85V40H187.231V12.1H195.781V15.8C196.648 14.5667 197.814 13.6 199.281 12.9C200.748 12.1667 202.398 11.8 204.231 11.8ZM219.222 26C219.222 23.1333 219.756 20.6167 220.822 18.45C221.922 16.2833 223.406 14.6167 225.272 13.45C227.139 12.2833 229.222 11.7 231.522 11.7C233.356 11.7 235.022 12.0833 236.522 12.85C238.056 13.6167 239.256 14.65 240.122 15.95V3H248.672V40H240.122V36C239.322 37.3333 238.172 38.4 236.672 39.2C235.206 40 233.489 40.4 231.522 40.4C229.222 40.4 227.139 39.8167 225.272 38.65C223.406 37.45 221.922 35.7667 220.822 33.6C219.756 31.4 219.222 28.8667 219.222 26ZM240.122 26.05C240.122 23.9167 239.522 22.2333 238.322 21C237.156 19.7667 235.722 19.15 234.022 19.15C232.322 19.15 230.872 19.7667 229.672 21C228.506 22.2 227.922 23.8667 227.922 26C227.922 28.1333 228.506 29.8333 229.672 31.1C230.872 32.3333 232.322 32.95 234.022 32.95C235.722 32.95 237.156 32.3333 238.322 31.1C239.522 29.8667 240.122 28.1833 240.122 26.05Z" fill="white"/>
<path d="M475.421 28.3C475.921 30.9333 477.454 32.25 480.021 32.25C481.787 32.25 483.037 31.4667 483.771 29.9C484.504 28.3333 484.871 25.7833 484.871 22.25C484.137 23.2833 483.137 24.0833 481.871 24.65C480.604 25.2167 479.187 25.5 477.621 25.5C475.487 25.5 473.587 25.0667 471.921 24.2C470.254 23.3 468.937 21.9833 467.971 20.25C467.037 18.4833 466.571 16.35 466.571 13.85C466.571 11.3833 467.071 9.23333 468.071 7.4C469.104 5.56666 470.554 4.15 472.421 3.15C474.321 2.15 476.554 1.65 479.121 1.65C484.054 1.65 487.504 3.18333 489.471 6.25C491.437 9.31667 492.421 13.8333 492.421 19.8C492.421 24.1333 492.021 27.7167 491.221 30.55C490.454 33.35 489.137 35.4833 487.271 36.95C485.437 38.4167 482.921 39.15 479.721 39.15C477.187 39.15 475.021 38.65 473.221 37.65C471.454 36.65 470.087 35.3333 469.121 33.7C468.187 32.0667 467.654 30.2667 467.521 28.3H475.421ZM479.571 18.75C480.971 18.75 482.087 18.3333 482.921 17.5C483.754 16.6333 484.171 15.4667 484.171 14C484.171 12.4 483.737 11.1667 482.871 10.3C482.004 9.43333 480.837 9 479.371 9C477.904 9 476.737 9.45 475.871 10.35C475.037 11.2167 474.621 12.4167 474.621 13.95C474.621 15.3833 475.037 16.55 475.871 17.45C476.737 18.3167 477.971 18.75 479.571 18.75ZM506.182 28.3C506.682 30.9333 508.216 32.25 510.782 32.25C512.549 32.25 513.799 31.4667 514.532 29.9C515.266 28.3333 515.632 25.7833 515.632 22.25C514.899 23.2833 513.899 24.0833 512.632 24.65C511.366 25.2167 509.949 25.5 508.382 25.5C506.249 25.5 504.349 25.0667 502.682 24.2C501.016 23.3 499.699 21.9833 498.732 20.25C497.799 18.4833 497.332 16.35 497.332 13.85C497.332 11.3833 497.832 9.23333 498.832 7.4C499.866 5.56666 501.316 4.15 503.182 3.15C505.082 2.15 507.316 1.65 509.882 1.65C514.816 1.65 518.266 3.18333 520.232 6.25C522.199 9.31667 523.182 13.8333 523.182 19.8C523.182 24.1333 522.782 27.7167 521.982 30.55C521.216 33.35 519.899 35.4833 518.032 36.95C516.199 38.4167 513.682 39.15 510.482 39.15C507.949 39.15 505.782 38.65 503.982 37.65C502.216 36.65 500.849 35.3333 499.882 33.7C498.949 32.0667 498.416 30.2667 498.282 28.3H506.182ZM510.332 18.75C511.732 18.75 512.849 18.3333 513.682 17.5C514.516 16.6333 514.932 15.4667 514.932 14C514.932 12.4 514.499 11.1667 513.632 10.3C512.766 9.43333 511.599 9 510.132 9C508.666 9 507.499 9.45 506.632 10.35C505.799 11.2167 505.382 12.4167 505.382 13.95C505.382 15.3833 505.799 16.55 506.632 17.45C507.499 18.3167 508.732 18.75 510.332 18.75ZM527.044 11.7C527.044 9 527.811 6.91667 529.344 5.45C530.911 3.98333 532.927 3.25 535.394 3.25C537.861 3.25 539.861 3.98333 541.394 5.45C542.927 6.91667 543.694 9 543.694 11.7C543.694 14.4 542.927 16.4833 541.394 17.95C539.861 19.4167 537.861 20.15 535.394 20.15C532.927 20.15 530.911 19.4167 529.344 17.95C527.811 16.4833 527.044 14.4 527.044 11.7ZM560.994 3.8L541.744 39H533.494L552.744 3.8H560.994ZM535.344 8.25C533.744 8.25 532.944 9.4 532.944 11.7C532.944 13.9667 533.744 15.1 535.344 15.1C536.111 15.1 536.711 14.8167 537.144 14.25C537.577 13.6833 537.794 12.8333 537.794 11.7C537.794 9.4 536.977 8.25 535.344 8.25ZM550.844 31.1C550.844 28.4 551.611 26.3167 553.144 24.85C554.677 23.3833 556.677 22.65 559.144 22.65C561.611 22.65 563.611 23.3833 565.144 24.85C566.677 26.3167 567.444 28.4 567.444 31.1C567.444 33.8 566.677 35.8833 565.144 37.35C563.611 38.8167 561.611 39.55 559.144 39.55C556.677 39.55 554.677 38.8167 553.144 37.35C551.611 35.8833 550.844 33.8 550.844 31.1ZM559.094 27.65C558.327 27.65 557.727 27.9333 557.294 28.5C556.894 29.0667 556.694 29.9333 556.694 31.1C556.694 33.3667 557.494 34.5 559.094 34.5C559.861 34.5 560.461 34.2167 560.894 33.65C561.327 33.0833 561.544 32.2333 561.544 31.1C561.544 29.9667 561.327 29.1167 560.894 28.55C560.461 27.95 559.861 27.65 559.094 27.65Z" fill="white"/>
</svg>
