<svg width="587" height="126" viewBox="0 0 587 126" fill="none" xmlns="http://www.w3.org/2000/svg">
<rect y="50.2424" width="587" height="75.7576" rx="9" fill="#4D4D4D"/>
<rect y="50" width="573.956" height="76" rx="6" fill="#E786D7"/>
<path d="M25.95 4.9V11.75H11.65V19.15H22.35V25.8H11.65V40H3.1V4.9H25.95ZM38.9938 16.75C39.9938 15.2167 41.2438 14.0167 42.7438 13.15C44.2438 12.25 45.9104 11.8 47.7438 11.8V20.85H45.3938C43.2604 20.85 41.6604 21.3167 40.5938 22.25C39.5271 23.15 38.9938 24.75 38.9938 27.05V40H30.4438V12.1H38.9938V16.75ZM64.5305 40.4C61.7971 40.4 59.3305 39.8167 57.1305 38.65C54.9638 37.4833 53.2471 35.8167 51.9805 33.65C50.7471 31.4833 50.1305 28.95 50.1305 26.05C50.1305 23.1833 50.7638 20.6667 52.0305 18.5C53.2971 16.3 55.0305 14.6167 57.2305 13.45C59.4305 12.2833 61.8971 11.7 64.6305 11.7C67.3638 11.7 69.8305 12.2833 72.0305 13.45C74.2305 14.6167 75.9638 16.3 77.2305 18.5C78.4971 20.6667 79.1305 23.1833 79.1305 26.05C79.1305 28.9167 78.4805 31.45 77.1805 33.65C75.9138 35.8167 74.1638 37.4833 71.9305 38.65C69.7305 39.8167 67.2638 40.4 64.5305 40.4ZM64.5305 33C66.1638 33 67.5471 32.4 68.6805 31.2C69.8471 30 70.4305 28.2833 70.4305 26.05C70.4305 23.8167 69.8638 22.1 68.7305 20.9C67.6305 19.7 66.2638 19.1 64.6305 19.1C62.9638 19.1 61.5805 19.7 60.4805 20.9C59.3805 22.0667 58.8305 23.7833 58.8305 26.05C58.8305 28.2833 59.3638 30 60.4305 31.2C61.5305 32.4 62.8971 33 64.5305 33ZM100.666 11.8C103.933 11.8 106.533 12.8667 108.466 15C110.433 17.1 111.416 20 111.416 23.7V40H102.916V24.85C102.916 22.9833 102.433 21.5333 101.466 20.5C100.5 19.4667 99.1997 18.95 97.5664 18.95C95.9331 18.95 94.6331 19.4667 93.6664 20.5C92.6997 21.5333 92.2164 22.9833 92.2164 24.85V40H83.6664V12.1H92.2164V15.8C93.0831 14.5667 94.2497 13.6 95.7164 12.9C97.1831 12.1667 98.8331 11.8 100.666 11.8ZM132.908 32.75V40H128.558C125.458 40 123.041 39.25 121.308 37.75C119.574 36.2167 118.708 33.7333 118.708 30.3V19.2H115.308V12.1H118.708V5.3H127.258V12.1H132.858V19.2H127.258V30.4C127.258 31.2333 127.458 31.8333 127.858 32.2C128.258 32.5667 128.924 32.75 129.858 32.75H132.908ZM159.17 18.9V26H137.17V18.9H159.17ZM192.974 25.6C192.974 26.4 192.924 27.2333 192.824 28.1H173.474C173.608 29.8333 174.158 31.1667 175.124 32.1C176.124 33 177.341 33.45 178.774 33.45C180.908 33.45 182.391 32.55 183.224 30.75H192.324C191.858 32.5833 191.008 34.2333 189.774 35.7C188.574 37.1667 187.058 38.3167 185.224 39.15C183.391 39.9833 181.341 40.4 179.074 40.4C176.341 40.4 173.908 39.8167 171.774 38.65C169.641 37.4833 167.974 35.8167 166.774 33.65C165.574 31.4833 164.974 28.95 164.974 26.05C164.974 23.15 165.558 20.6167 166.724 18.45C167.924 16.2833 169.591 14.6167 171.724 13.45C173.858 12.2833 176.308 11.7 179.074 11.7C181.774 11.7 184.174 12.2667 186.274 13.4C188.374 14.5333 190.008 16.15 191.174 18.25C192.374 20.35 192.974 22.8 192.974 25.6ZM184.224 23.35C184.224 21.8833 183.724 20.7167 182.724 19.85C181.724 18.9833 180.474 18.55 178.974 18.55C177.541 18.55 176.324 18.9667 175.324 19.8C174.358 20.6333 173.758 21.8167 173.524 23.35H184.224ZM214.485 11.8C217.751 11.8 220.351 12.8667 222.285 15C224.251 17.1 225.235 20 225.235 23.7V40H216.735V24.85C216.735 22.9833 216.251 21.5333 215.285 20.5C214.318 19.4667 213.018 18.95 211.385 18.95C209.751 18.95 208.451 19.4667 207.485 20.5C206.518 21.5333 206.035 22.9833 206.035 24.85V40H197.485V12.1H206.035V15.8C206.901 14.5667 208.068 13.6 209.535 12.9C211.001 12.1667 212.651 11.8 214.485 11.8ZM229.476 26C229.476 23.1333 230.01 20.6167 231.076 18.45C232.176 16.2833 233.66 14.6167 235.526 13.45C237.393 12.2833 239.476 11.7 241.776 11.7C243.61 11.7 245.276 12.0833 246.776 12.85C248.31 13.6167 249.51 14.65 250.376 15.95V3H258.926V40H250.376V36C249.576 37.3333 248.426 38.4 246.926 39.2C245.46 40 243.743 40.4 241.776 40.4C239.476 40.4 237.393 39.8167 235.526 38.65C233.66 37.45 232.176 35.7667 231.076 33.6C230.01 31.4 229.476 28.8667 229.476 26ZM250.376 26.05C250.376 23.9167 249.776 22.2333 248.576 21C247.41 19.7667 245.976 19.15 244.276 19.15C242.576 19.15 241.126 19.7667 239.926 21C238.76 22.2 238.176 23.8667 238.176 26C238.176 28.1333 238.76 29.8333 239.926 31.1C241.126 32.3333 242.576 32.95 244.276 32.95C245.976 32.95 247.41 32.3333 248.576 31.1C249.776 29.8667 250.376 28.1833 250.376 26.05Z" fill="white"/>
<path d="M475.421 28.3C475.921 30.9333 477.454 32.25 480.021 32.25C481.787 32.25 483.037 31.4667 483.771 29.9C484.504 28.3333 484.871 25.7833 484.871 22.25C484.137 23.2833 483.137 24.0833 481.871 24.65C480.604 25.2167 479.187 25.5 477.621 25.5C475.487 25.5 473.587 25.0667 471.921 24.2C470.254 23.3 468.937 21.9833 467.971 20.25C467.037 18.4833 466.571 16.35 466.571 13.85C466.571 11.3833 467.071 9.23333 468.071 7.4C469.104 5.56666 470.554 4.15 472.421 3.15C474.321 2.15 476.554 1.65 479.121 1.65C484.054 1.65 487.504 3.18333 489.471 6.25C491.437 9.31667 492.421 13.8333 492.421 19.8C492.421 24.1333 492.021 27.7167 491.221 30.55C490.454 33.35 489.137 35.4833 487.271 36.95C485.437 38.4167 482.921 39.15 479.721 39.15C477.187 39.15 475.021 38.65 473.221 37.65C471.454 36.65 470.087 35.3333 469.121 33.7C468.187 32.0667 467.654 30.2667 467.521 28.3H475.421ZM479.571 18.75C480.971 18.75 482.087 18.3333 482.921 17.5C483.754 16.6333 484.171 15.4667 484.171 14C484.171 12.4 483.737 11.1667 482.871 10.3C482.004 9.43333 480.837 9 479.371 9C477.904 9 476.737 9.45 475.871 10.35C475.037 11.2167 474.621 12.4167 474.621 13.95C474.621 15.3833 475.037 16.55 475.871 17.45C476.737 18.3167 477.971 18.75 479.571 18.75ZM506.182 28.3C506.682 30.9333 508.216 32.25 510.782 32.25C512.549 32.25 513.799 31.4667 514.532 29.9C515.266 28.3333 515.632 25.7833 515.632 22.25C514.899 23.2833 513.899 24.0833 512.632 24.65C511.366 25.2167 509.949 25.5 508.382 25.5C506.249 25.5 504.349 25.0667 502.682 24.2C501.016 23.3 499.699 21.9833 498.732 20.25C497.799 18.4833 497.332 16.35 497.332 13.85C497.332 11.3833 497.832 9.23333 498.832 7.4C499.866 5.56666 501.316 4.15 503.182 3.15C505.082 2.15 507.316 1.65 509.882 1.65C514.816 1.65 518.266 3.18333 520.232 6.25C522.199 9.31667 523.182 13.8333 523.182 19.8C523.182 24.1333 522.782 27.7167 521.982 30.55C521.216 33.35 519.899 35.4833 518.032 36.95C516.199 38.4167 513.682 39.15 510.482 39.15C507.949 39.15 505.782 38.65 503.982 37.65C502.216 36.65 500.849 35.3333 499.882 33.7C498.949 32.0667 498.416 30.2667 498.282 28.3H506.182ZM510.332 18.75C511.732 18.75 512.849 18.3333 513.682 17.5C514.516 16.6333 514.932 15.4667 514.932 14C514.932 12.4 514.499 11.1667 513.632 10.3C512.766 9.43333 511.599 9 510.132 9C508.666 9 507.499 9.45 506.632 10.35C505.799 11.2167 505.382 12.4167 505.382 13.95C505.382 15.3833 505.799 16.55 506.632 17.45C507.499 18.3167 508.732 18.75 510.332 18.75ZM527.044 11.7C527.044 9 527.811 6.91667 529.344 5.45C530.911 3.98333 532.927 3.25 535.394 3.25C537.861 3.25 539.861 3.98333 541.394 5.45C542.927 6.91667 543.694 9 543.694 11.7C543.694 14.4 542.927 16.4833 541.394 17.95C539.861 19.4167 537.861 20.15 535.394 20.15C532.927 20.15 530.911 19.4167 529.344 17.95C527.811 16.4833 527.044 14.4 527.044 11.7ZM560.994 3.8L541.744 39H533.494L552.744 3.8H560.994ZM535.344 8.25C533.744 8.25 532.944 9.4 532.944 11.7C532.944 13.9667 533.744 15.1 535.344 15.1C536.111 15.1 536.711 14.8167 537.144 14.25C537.577 13.6833 537.794 12.8333 537.794 11.7C537.794 9.4 536.977 8.25 535.344 8.25ZM550.844 31.1C550.844 28.4 551.611 26.3167 553.144 24.85C554.677 23.3833 556.677 22.65 559.144 22.65C561.611 22.65 563.611 23.3833 565.144 24.85C566.677 26.3167 567.444 28.4 567.444 31.1C567.444 33.8 566.677 35.8833 565.144 37.35C563.611 38.8167 561.611 39.55 559.144 39.55C556.677 39.55 554.677 38.8167 553.144 37.35C551.611 35.8833 550.844 33.8 550.844 31.1ZM559.094 27.65C558.327 27.65 557.727 27.9333 557.294 28.5C556.894 29.0667 556.694 29.9333 556.694 31.1C556.694 33.3667 557.494 34.5 559.094 34.5C559.861 34.5 560.461 34.2167 560.894 33.65C561.327 33.0833 561.544 32.2333 561.544 31.1C561.544 29.9667 561.327 29.1167 560.894 28.55C560.461 27.95 559.861 27.65 559.094 27.65Z" fill="white"/>
</svg>
