<svg width="587" height="127" viewBox="0 0 587 127" fill="none" xmlns="http://www.w3.org/2000/svg">
<rect y="51.2422" width="587" height="75.7576" rx="9" fill="#4D4D4D"/>
<rect y="51" width="410" height="76" rx="6" fill="#E786D7"/>
<path d="M42.85 5.9V41H34.3V19.95L26.45 41H19.55L11.65 19.9V41H3.1V5.9H13.2L23.05 30.2L32.8 5.9H42.85ZM61.6984 41.4C58.9651 41.4 56.4984 40.8167 54.2984 39.65C52.1318 38.4833 50.4151 36.8167 49.1484 34.65C47.9151 32.4833 47.2984 29.95 47.2984 27.05C47.2984 24.1833 47.9318 21.6667 49.1984 19.5C50.4651 17.3 52.1984 15.6167 54.3984 14.45C56.5984 13.2833 59.0651 12.7 61.7984 12.7C64.5318 12.7 66.9984 13.2833 69.1984 14.45C71.3984 15.6167 73.1318 17.3 74.3984 19.5C75.6651 21.6667 76.2984 24.1833 76.2984 27.05C76.2984 29.9167 75.6484 32.45 74.3484 34.65C73.0818 36.8167 71.3318 38.4833 69.0984 39.65C66.8984 40.8167 64.4318 41.4 61.6984 41.4ZM61.6984 34C63.3318 34 64.7151 33.4 65.8484 32.2C67.0151 31 67.5984 29.2833 67.5984 27.05C67.5984 24.8167 67.0318 23.1 65.8984 21.9C64.7984 20.7 63.4318 20.1 61.7984 20.1C60.1318 20.1 58.7484 20.7 57.6484 21.9C56.5484 23.0667 55.9984 24.7833 55.9984 27.05C55.9984 29.2833 56.5318 31 57.5984 32.2C58.6984 33.4 60.0651 34 61.6984 34ZM89.3844 17.05C90.1844 15.75 91.3344 14.7 92.8344 13.9C94.3344 13.1 96.051 12.7 97.9844 12.7C100.284 12.7 102.368 13.2833 104.234 14.45C106.101 15.6167 107.568 17.2833 108.634 19.45C109.734 21.6167 110.284 24.1333 110.284 27C110.284 29.8667 109.734 32.4 108.634 34.6C107.568 36.7667 106.101 38.45 104.234 39.65C102.368 40.8167 100.284 41.4 97.9844 41.4C96.0177 41.4 94.301 41.0167 92.8344 40.25C91.3677 39.45 90.2177 38.4 89.3844 37.1V41H80.8344V4H89.3844V17.05ZM101.584 27C101.584 24.8667 100.984 23.2 99.7844 22C98.6177 20.7667 97.1677 20.15 95.4344 20.15C93.7344 20.15 92.2844 20.7667 91.0844 22C89.9177 23.2333 89.3344 24.9167 89.3344 27.05C89.3344 29.1833 89.9177 30.8667 91.0844 32.1C92.2844 33.3333 93.7344 33.95 95.4344 33.95C97.1344 33.95 98.5844 33.3333 99.7844 32.1C100.984 30.8333 101.584 29.1333 101.584 27ZM119.07 10.2C117.57 10.2 116.337 9.76666 115.37 8.9C114.437 8 113.97 6.9 113.97 5.6C113.97 4.26667 114.437 3.16666 115.37 2.3C116.337 1.4 117.57 0.949997 119.07 0.949997C120.537 0.949997 121.737 1.4 122.67 2.3C123.637 3.16666 124.12 4.26667 124.12 5.6C124.12 6.9 123.637 8 122.67 8.9C121.737 9.76666 120.537 10.2 119.07 10.2ZM123.32 13.1V41H114.77V13.1H123.32ZM138.066 4V41H129.516V4H138.066ZM170.562 26.6C170.562 27.4 170.512 28.2333 170.412 29.1H151.062C151.195 30.8333 151.745 32.1667 152.712 33.1C153.712 34 154.929 34.45 156.362 34.45C158.495 34.45 159.979 33.55 160.812 31.75H169.912C169.445 33.5833 168.595 35.2333 167.362 36.7C166.162 38.1667 164.645 39.3167 162.812 40.15C160.979 40.9833 158.929 41.4 156.662 41.4C153.929 41.4 151.495 40.8167 149.362 39.65C147.229 38.4833 145.562 36.8167 144.362 34.65C143.162 32.4833 142.562 29.95 142.562 27.05C142.562 24.15 143.145 21.6167 144.312 19.45C145.512 17.2833 147.179 15.6167 149.312 14.45C151.445 13.2833 153.895 12.7 156.662 12.7C159.362 12.7 161.762 13.2667 163.862 14.4C165.962 15.5333 167.595 17.15 168.762 19.25C169.962 21.35 170.562 23.8 170.562 26.6ZM161.812 24.35C161.812 22.8833 161.312 21.7167 160.312 20.85C159.312 19.9833 158.062 19.55 156.562 19.55C155.129 19.55 153.912 19.9667 152.912 20.8C151.945 21.6333 151.345 22.8167 151.112 24.35H161.812Z" fill="white"/>
<path d="M468.705 20.4C465.572 18.7333 464.005 16.1167 464.005 12.55C464.005 10.75 464.472 9.11666 465.405 7.65C466.338 6.15 467.755 4.96666 469.655 4.1C471.555 3.2 473.888 2.75 476.655 2.75C479.422 2.75 481.738 3.2 483.605 4.1C485.505 4.96666 486.922 6.15 487.855 7.65C488.788 9.11666 489.255 10.75 489.255 12.55C489.255 14.35 488.822 15.9167 487.955 17.25C487.122 18.5833 485.988 19.6333 484.555 20.4C486.355 21.2667 487.738 22.4667 488.705 24C489.672 25.5 490.155 27.2667 490.155 29.3C490.155 31.6667 489.555 33.7167 488.355 35.45C487.155 37.15 485.522 38.45 483.455 39.35C481.422 40.25 479.155 40.7 476.655 40.7C474.155 40.7 471.872 40.25 469.805 39.35C467.772 38.45 466.155 37.15 464.955 35.45C463.755 33.7167 463.155 31.6667 463.155 29.3C463.155 27.2333 463.638 25.45 464.605 23.95C465.572 22.4167 466.938 21.2333 468.705 20.4ZM480.955 13.85C480.955 12.4833 480.555 11.4333 479.755 10.7C478.988 9.93333 477.955 9.55 476.655 9.55C475.355 9.55 474.305 9.93333 473.505 10.7C472.738 11.4667 472.355 12.5333 472.355 13.9C472.355 15.2 472.755 16.2333 473.555 17C474.355 17.7333 475.388 18.1 476.655 18.1C477.922 18.1 478.955 17.7167 479.755 16.95C480.555 16.1833 480.955 15.15 480.955 13.85ZM476.655 24.1C475.088 24.1 473.822 24.5333 472.855 25.4C471.888 26.2333 471.405 27.4 471.405 28.9C471.405 30.3 471.872 31.45 472.805 32.35C473.772 33.25 475.055 33.7 476.655 33.7C478.255 33.7 479.505 33.25 480.405 32.35C481.338 31.45 481.805 30.3 481.805 28.9C481.805 27.4333 481.322 26.2667 480.355 25.4C479.422 24.5333 478.188 24.1 476.655 24.1ZM495.127 21.25C495.127 15.5167 496.227 11 498.427 7.7C500.66 4.4 504.244 2.75 509.177 2.75C514.11 2.75 517.677 4.4 519.877 7.7C522.11 11 523.227 15.5167 523.227 21.25C523.227 27.05 522.11 31.6 519.877 34.9C517.677 38.2 514.11 39.85 509.177 39.85C504.244 39.85 500.66 38.2 498.427 34.9C496.227 31.6 495.127 27.05 495.127 21.25ZM514.827 21.25C514.827 17.8833 514.46 15.3 513.727 13.5C512.994 11.6667 511.477 10.75 509.177 10.75C506.877 10.75 505.36 11.6667 504.627 13.5C503.894 15.3 503.527 17.8833 503.527 21.25C503.527 23.5167 503.66 25.4 503.927 26.9C504.194 28.3667 504.727 29.5667 505.527 30.5C506.36 31.4 507.577 31.85 509.177 31.85C510.777 31.85 511.977 31.4 512.777 30.5C513.61 29.5667 514.16 28.3667 514.427 26.9C514.694 25.4 514.827 23.5167 514.827 21.25ZM527.044 12.7C527.044 10 527.811 7.91667 529.344 6.45C530.911 4.98333 532.927 4.25 535.394 4.25C537.861 4.25 539.861 4.98333 541.394 6.45C542.927 7.91667 543.694 10 543.694 12.7C543.694 15.4 542.927 17.4833 541.394 18.95C539.861 20.4167 537.861 21.15 535.394 21.15C532.927 21.15 530.911 20.4167 529.344 18.95C527.811 17.4833 527.044 15.4 527.044 12.7ZM560.994 4.8L541.744 40H533.494L552.744 4.8H560.994ZM535.344 9.25C533.744 9.25 532.944 10.4 532.944 12.7C532.944 14.9667 533.744 16.1 535.344 16.1C536.111 16.1 536.711 15.8167 537.144 15.25C537.577 14.6833 537.794 13.8333 537.794 12.7C537.794 10.4 536.977 9.25 535.344 9.25ZM550.844 32.1C550.844 29.4 551.611 27.3167 553.144 25.85C554.677 24.3833 556.677 23.65 559.144 23.65C561.611 23.65 563.611 24.3833 565.144 25.85C566.677 27.3167 567.444 29.4 567.444 32.1C567.444 34.8 566.677 36.8833 565.144 38.35C563.611 39.8167 561.611 40.55 559.144 40.55C556.677 40.55 554.677 39.8167 553.144 38.35C551.611 36.8833 550.844 34.8 550.844 32.1ZM559.094 28.65C558.327 28.65 557.727 28.9333 557.294 29.5C556.894 30.0667 556.694 30.9333 556.694 32.1C556.694 34.3667 557.494 35.5 559.094 35.5C559.861 35.5 560.461 35.2167 560.894 34.65C561.327 34.0833 561.544 33.2333 561.544 32.1C561.544 30.9667 561.327 30.1167 560.894 29.55C560.461 28.95 559.861 28.65 559.094 28.65Z" fill="white"/>
</svg>
