<svg width="587" height="126" viewBox="0 0 587 126" fill="none" xmlns="http://www.w3.org/2000/svg">
<rect y="50.2422" width="587" height="75.7576" rx="9" fill="#4D4D4D"/>
<rect y="50" width="404" height="76" rx="6" fill="#E786D7"/>
<path d="M15.8 40.35C13.2333 40.35 10.9333 39.9333 8.9 39.1C6.86667 38.2667 5.23333 37.0333 4 35.4C2.8 33.7667 2.16667 31.8 2.1 29.5H11.2C11.3333 30.8 11.7833 31.8 12.55 32.5C13.3167 33.1667 14.3167 33.5 15.55 33.5C16.8167 33.5 17.8167 33.2167 18.55 32.65C19.2833 32.05 19.65 31.2333 19.65 30.2C19.65 29.3333 19.35 28.6167 18.75 28.05C18.1833 27.4833 17.4667 27.0167 16.6 26.65C15.7667 26.2833 14.5667 25.8667 13 25.4C10.7333 24.7 8.88333 24 7.45 23.3C6.01667 22.6 4.78333 21.5667 3.75 20.2C2.71667 18.8333 2.2 17.05 2.2 14.85C2.2 11.5833 3.38333 9.03333 5.75 7.2C8.11667 5.33333 11.2 4.4 15 4.4C18.8667 4.4 21.9833 5.33333 24.35 7.2C26.7167 9.03333 27.9833 11.6 28.15 14.9H18.9C18.8333 13.7667 18.4167 12.8833 17.65 12.25C16.8833 11.5833 15.9 11.25 14.7 11.25C13.6667 11.25 12.8333 11.5333 12.2 12.1C11.5667 12.6333 11.25 13.4167 11.25 14.45C11.25 15.5833 11.7833 16.4667 12.85 17.1C13.9167 17.7333 15.5833 18.4167 17.85 19.15C20.1167 19.9167 21.95 20.65 23.35 21.35C24.7833 22.05 26.0167 23.0667 27.05 24.4C28.0833 25.7333 28.6 27.45 28.6 29.55C28.6 31.55 28.0833 33.3667 27.05 35C26.05 36.6333 24.5833 37.9333 22.65 38.9C20.7167 39.8667 18.4333 40.35 15.8 40.35ZM42.4117 11.75V18.85H53.8617V25.45H42.4117V33.15H55.3617V40H33.8617V4.9H55.3617V11.75H42.4117ZM77.5125 40.35C74.2125 40.35 71.1792 39.5833 68.4125 38.05C65.6792 36.5167 63.4958 34.3833 61.8625 31.65C60.2625 28.8833 59.4625 25.7833 59.4625 22.35C59.4625 18.9167 60.2625 15.8333 61.8625 13.1C63.4958 10.3667 65.6792 8.23333 68.4125 6.7C71.1792 5.16667 74.2125 4.4 77.5125 4.4C80.8125 4.4 83.8292 5.16667 86.5625 6.7C89.3292 8.23333 91.4958 10.3667 93.0625 13.1C94.6625 15.8333 95.4625 18.9167 95.4625 22.35C95.4625 25.7833 94.6625 28.8833 93.0625 31.65C91.4625 34.3833 89.2958 36.5167 86.5625 38.05C83.8292 39.5833 80.8125 40.35 77.5125 40.35ZM77.5125 32.55C80.3125 32.55 82.5458 31.6167 84.2125 29.75C85.9125 27.8833 86.7625 25.4167 86.7625 22.35C86.7625 19.25 85.9125 16.7833 84.2125 14.95C82.5458 13.0833 80.3125 12.15 77.5125 12.15C74.6792 12.15 72.4125 13.0667 70.7125 14.9C69.0458 16.7333 68.2125 19.2167 68.2125 22.35C68.2125 25.45 69.0458 27.9333 70.7125 29.8C72.4125 31.6333 74.6792 32.55 77.5125 32.55Z" fill="white"/>
<path d="M468.705 19.4C465.572 17.7333 464.005 15.1167 464.005 11.55C464.005 9.75 464.472 8.11666 465.405 6.65C466.338 5.15 467.755 3.96666 469.655 3.1C471.555 2.2 473.888 1.75 476.655 1.75C479.422 1.75 481.738 2.2 483.605 3.1C485.505 3.96666 486.922 5.15 487.855 6.65C488.788 8.11666 489.255 9.75 489.255 11.55C489.255 13.35 488.822 14.9167 487.955 16.25C487.122 17.5833 485.988 18.6333 484.555 19.4C486.355 20.2667 487.738 21.4667 488.705 23C489.672 24.5 490.155 26.2667 490.155 28.3C490.155 30.6667 489.555 32.7167 488.355 34.45C487.155 36.15 485.522 37.45 483.455 38.35C481.422 39.25 479.155 39.7 476.655 39.7C474.155 39.7 471.872 39.25 469.805 38.35C467.772 37.45 466.155 36.15 464.955 34.45C463.755 32.7167 463.155 30.6667 463.155 28.3C463.155 26.2333 463.638 24.45 464.605 22.95C465.572 21.4167 466.938 20.2333 468.705 19.4ZM480.955 12.85C480.955 11.4833 480.555 10.4333 479.755 9.7C478.988 8.93333 477.955 8.55 476.655 8.55C475.355 8.55 474.305 8.93333 473.505 9.7C472.738 10.4667 472.355 11.5333 472.355 12.9C472.355 14.2 472.755 15.2333 473.555 16C474.355 16.7333 475.388 17.1 476.655 17.1C477.922 17.1 478.955 16.7167 479.755 15.95C480.555 15.1833 480.955 14.15 480.955 12.85ZM476.655 23.1C475.088 23.1 473.822 23.5333 472.855 24.4C471.888 25.2333 471.405 26.4 471.405 27.9C471.405 29.3 471.872 30.45 472.805 31.35C473.772 32.25 475.055 32.7 476.655 32.7C478.255 32.7 479.505 32.25 480.405 31.35C481.338 30.45 481.805 29.3 481.805 27.9C481.805 26.4333 481.322 25.2667 480.355 24.4C479.422 23.5333 478.188 23.1 476.655 23.1ZM495.127 20.25C495.127 14.5167 496.227 10 498.427 6.7C500.66 3.4 504.244 1.75 509.177 1.75C514.11 1.75 517.677 3.4 519.877 6.7C522.11 10 523.227 14.5167 523.227 20.25C523.227 26.05 522.11 30.6 519.877 33.9C517.677 37.2 514.11 38.85 509.177 38.85C504.244 38.85 500.66 37.2 498.427 33.9C496.227 30.6 495.127 26.05 495.127 20.25ZM514.827 20.25C514.827 16.8833 514.46 14.3 513.727 12.5C512.994 10.6667 511.477 9.75 509.177 9.75C506.877 9.75 505.36 10.6667 504.627 12.5C503.894 14.3 503.527 16.8833 503.527 20.25C503.527 22.5167 503.66 24.4 503.927 25.9C504.194 27.3667 504.727 28.5667 505.527 29.5C506.36 30.4 507.577 30.85 509.177 30.85C510.777 30.85 511.977 30.4 512.777 29.5C513.61 28.5667 514.16 27.3667 514.427 25.9C514.694 24.4 514.827 22.5167 514.827 20.25ZM527.044 11.7C527.044 9 527.811 6.91667 529.344 5.45C530.911 3.98333 532.927 3.25 535.394 3.25C537.861 3.25 539.861 3.98333 541.394 5.45C542.927 6.91667 543.694 9 543.694 11.7C543.694 14.4 542.927 16.4833 541.394 17.95C539.861 19.4167 537.861 20.15 535.394 20.15C532.927 20.15 530.911 19.4167 529.344 17.95C527.811 16.4833 527.044 14.4 527.044 11.7ZM560.994 3.8L541.744 39H533.494L552.744 3.8H560.994ZM535.344 8.25C533.744 8.25 532.944 9.4 532.944 11.7C532.944 13.9667 533.744 15.1 535.344 15.1C536.111 15.1 536.711 14.8167 537.144 14.25C537.577 13.6833 537.794 12.8333 537.794 11.7C537.794 9.4 536.977 8.25 535.344 8.25ZM550.844 31.1C550.844 28.4 551.611 26.3167 553.144 24.85C554.677 23.3833 556.677 22.65 559.144 22.65C561.611 22.65 563.611 23.3833 565.144 24.85C566.677 26.3167 567.444 28.4 567.444 31.1C567.444 33.8 566.677 35.8833 565.144 37.35C563.611 38.8167 561.611 39.55 559.144 39.55C556.677 39.55 554.677 38.8167 553.144 37.35C551.611 35.8833 550.844 33.8 550.844 31.1ZM559.094 27.65C558.327 27.65 557.727 27.9333 557.294 28.5C556.894 29.0667 556.694 29.9333 556.694 31.1C556.694 33.3667 557.494 34.5 559.094 34.5C559.861 34.5 560.461 34.2167 560.894 33.65C561.327 33.0833 561.544 32.2333 561.544 31.1C561.544 29.9667 561.327 29.1167 560.894 28.55C560.461 27.95 559.861 27.65 559.094 27.65Z" fill="white"/>
</svg>
