<svg width="587" height="134" viewBox="0 0 587 134" fill="none" xmlns="http://www.w3.org/2000/svg">
<rect y="58.2422" width="587" height="75.7576" rx="9" fill="#4D4D4D"/>
<rect y="58" width="523" height="76" rx="6" fill="#E786D7"/>
<path d="M11.5 12.9V33.9C11.5 36 12.0167 37.6167 13.05 38.75C14.0833 39.8833 15.6 40.45 17.6 40.45C19.6 40.45 21.1333 39.8833 22.2 38.75C23.2667 37.6167 23.8 36 23.8 33.9V12.9H32.35V33.85C32.35 36.9833 31.6833 39.6333 30.35 41.8C29.0167 43.9667 27.2167 45.6 24.95 46.7C22.7167 47.8 20.2167 48.35 17.45 48.35C14.6833 48.35 12.2 47.8167 10 46.75C7.83333 45.65 6.11667 44.0167 4.85 41.85C3.58333 39.65 2.95 36.9833 2.95 33.85V12.9H11.5ZM46.9039 12.9V48H38.3539V12.9H46.9039ZM72.15 0.499998L58.75 57.35H50.5L63.9 0.499998H72.15ZM84.1563 12.9V33.9C84.1563 36 84.6729 37.6167 85.7063 38.75C86.7396 39.8833 88.2563 40.45 90.2563 40.45C92.2563 40.45 93.7896 39.8833 94.8563 38.75C95.9229 37.6167 96.4563 36 96.4563 33.9V12.9H105.006V33.85C105.006 36.9833 104.34 39.6333 103.006 41.8C101.673 43.9667 99.8729 45.6 97.6063 46.7C95.3729 47.8 92.8729 48.35 90.1063 48.35C87.3396 48.35 84.8563 47.8167 82.6563 46.75C80.4896 45.65 78.7729 44.0167 77.5063 41.85C76.2396 39.65 75.6063 36.9833 75.6063 33.85V12.9H84.1563ZM132.51 48L125.36 37.25L119.06 48H109.36L120.61 30.15L109.11 12.9H119.06L126.11 23.5L132.31 12.9H142.01L130.86 30.6L142.46 48H132.51Z" fill="white"/>
<path d="M473.565 36.3C474.065 38.9333 475.599 40.25 478.165 40.25C479.932 40.25 481.182 39.4667 481.915 37.9C482.649 36.3333 483.015 33.7833 483.015 30.25C482.282 31.2833 481.282 32.0833 480.015 32.65C478.749 33.2167 477.332 33.5 475.765 33.5C473.632 33.5 471.732 33.0667 470.065 32.2C468.399 31.3 467.082 29.9833 466.115 28.25C465.182 26.4833 464.715 24.35 464.715 21.85C464.715 19.3833 465.215 17.2333 466.215 15.4C467.249 13.5667 468.699 12.15 470.565 11.15C472.465 10.15 474.699 9.65 477.265 9.65C482.199 9.65 485.649 11.1833 487.615 14.25C489.582 17.3167 490.565 21.8333 490.565 27.8C490.565 32.1333 490.165 35.7167 489.365 38.55C488.599 41.35 487.282 43.4833 485.415 44.95C483.582 46.4167 481.065 47.15 477.865 47.15C475.332 47.15 473.165 46.65 471.365 45.65C469.599 44.65 468.232 43.3333 467.265 41.7C466.332 40.0667 465.799 38.2667 465.665 36.3H473.565ZM477.715 26.75C479.115 26.75 480.232 26.3333 481.065 25.5C481.899 24.6333 482.315 23.4667 482.315 22C482.315 20.4 481.882 19.1667 481.015 18.3C480.149 17.4333 478.982 17 477.515 17C476.049 17 474.882 17.45 474.015 18.35C473.182 19.2167 472.765 20.4167 472.765 21.95C472.765 23.3833 473.182 24.55 474.015 25.45C474.882 26.3167 476.115 26.75 477.715 26.75ZM495.127 28.25C495.127 22.5167 496.227 18 498.427 14.7C500.66 11.4 504.244 9.75 509.177 9.75C514.11 9.75 517.677 11.4 519.877 14.7C522.11 18 523.227 22.5167 523.227 28.25C523.227 34.05 522.11 38.6 519.877 41.9C517.677 45.2 514.11 46.85 509.177 46.85C504.244 46.85 500.66 45.2 498.427 41.9C496.227 38.6 495.127 34.05 495.127 28.25ZM514.827 28.25C514.827 24.8833 514.46 22.3 513.727 20.5C512.994 18.6667 511.477 17.75 509.177 17.75C506.877 17.75 505.36 18.6667 504.627 20.5C503.894 22.3 503.527 24.8833 503.527 28.25C503.527 30.5167 503.66 32.4 503.927 33.9C504.194 35.3667 504.727 36.5667 505.527 37.5C506.36 38.4 507.577 38.85 509.177 38.85C510.777 38.85 511.977 38.4 512.777 37.5C513.61 36.5667 514.16 35.3667 514.427 33.9C514.694 32.4 514.827 30.5167 514.827 28.25ZM527.044 19.7C527.044 17 527.811 14.9167 529.344 13.45C530.911 11.9833 532.927 11.25 535.394 11.25C537.861 11.25 539.861 11.9833 541.394 13.45C542.927 14.9167 543.694 17 543.694 19.7C543.694 22.4 542.927 24.4833 541.394 25.95C539.861 27.4167 537.861 28.15 535.394 28.15C532.927 28.15 530.911 27.4167 529.344 25.95C527.811 24.4833 527.044 22.4 527.044 19.7ZM560.994 11.8L541.744 47H533.494L552.744 11.8H560.994ZM535.344 16.25C533.744 16.25 532.944 17.4 532.944 19.7C532.944 21.9667 533.744 23.1 535.344 23.1C536.111 23.1 536.711 22.8167 537.144 22.25C537.577 21.6833 537.794 20.8333 537.794 19.7C537.794 17.4 536.977 16.25 535.344 16.25ZM550.844 39.1C550.844 36.4 551.611 34.3167 553.144 32.85C554.677 31.3833 556.677 30.65 559.144 30.65C561.611 30.65 563.611 31.3833 565.144 32.85C566.677 34.3167 567.444 36.4 567.444 39.1C567.444 41.8 566.677 43.8833 565.144 45.35C563.611 46.8167 561.611 47.55 559.144 47.55C556.677 47.55 554.677 46.8167 553.144 45.35C551.611 43.8833 550.844 41.8 550.844 39.1ZM559.094 35.65C558.327 35.65 557.727 35.9333 557.294 36.5C556.894 37.0667 556.694 37.9333 556.694 39.1C556.694 41.3667 557.494 42.5 559.094 42.5C559.861 42.5 560.461 42.2167 560.894 41.65C561.327 41.0833 561.544 40.2333 561.544 39.1C561.544 37.9667 561.327 37.1167 560.894 36.55C560.461 35.95 559.861 35.65 559.094 35.65Z" fill="white"/>
</svg>
