<svg width="587" height="126" viewBox="0 0 587 126" fill="none" xmlns="http://www.w3.org/2000/svg">
<rect y="50.2422" width="587" height="75.7576" rx="9" fill="#4D4D4D"/>
<rect y="50" width="587" height="76" rx="6" fill="#E786D7"/>
<path d="M51.4 4.9L42.25 40H31.9L26.3 16.9L20.5 40H10.15L1.25 4.9H10.4L15.45 30.45L21.7 4.9H31.1L37.1 30.45L42.2 4.9H51.4ZM81.9879 25.6C81.9879 26.4 81.9379 27.2333 81.8379 28.1H62.4879C62.6212 29.8333 63.1712 31.1667 64.1379 32.1C65.1379 33 66.3546 33.45 67.7879 33.45C69.9212 33.45 71.4046 32.55 72.2379 30.75H81.3379C80.8712 32.5833 80.0212 34.2333 78.7879 35.7C77.5879 37.1667 76.0712 38.3167 74.2379 39.15C72.4046 39.9833 70.3546 40.4 68.0879 40.4C65.3546 40.4 62.9212 39.8167 60.7879 38.65C58.6546 37.4833 56.9879 35.8167 55.7879 33.65C54.5879 31.4833 53.9879 28.95 53.9879 26.05C53.9879 23.15 54.5712 20.6167 55.7379 18.45C56.9379 16.2833 58.6046 14.6167 60.7379 13.45C62.8712 12.2833 65.3212 11.7 68.0879 11.7C70.7879 11.7 73.1879 12.2667 75.2879 13.4C77.3879 14.5333 79.0212 16.15 80.1879 18.25C81.3879 20.35 81.9879 22.8 81.9879 25.6ZM73.2379 23.35C73.2379 21.8833 72.7379 20.7167 71.7379 19.85C70.7379 18.9833 69.4879 18.55 67.9879 18.55C66.5546 18.55 65.3379 18.9667 64.3379 19.8C63.3712 20.6333 62.7712 21.8167 62.5379 23.35H73.2379ZM95.0484 16.05C95.8484 14.75 96.9984 13.7 98.4984 12.9C99.9984 12.1 101.715 11.7 103.648 11.7C105.948 11.7 108.032 12.2833 109.898 13.45C111.765 14.6167 113.232 16.2833 114.298 18.45C115.398 20.6167 115.948 23.1333 115.948 26C115.948 28.8667 115.398 31.4 114.298 33.6C113.232 35.7667 111.765 37.45 109.898 38.65C108.032 39.8167 105.948 40.4 103.648 40.4C101.682 40.4 99.9651 40.0167 98.4984 39.25C97.0318 38.45 95.8818 37.4 95.0484 36.1V40H86.4984V3H95.0484V16.05ZM107.248 26C107.248 23.8667 106.648 22.2 105.448 21C104.282 19.7667 102.832 19.15 101.098 19.15C99.3984 19.15 97.9484 19.7667 96.7484 21C95.5818 22.2333 94.9984 23.9167 94.9984 26.05C94.9984 28.1833 95.5818 29.8667 96.7484 31.1C97.9484 32.3333 99.3984 32.95 101.098 32.95C102.798 32.95 104.248 32.3333 105.448 31.1C106.648 29.8333 107.248 28.1333 107.248 26Z" fill="white"/>
<path d="M442.811 10.45V2.5H456.661V39H447.761V10.45H442.811ZM462.51 20.25C462.51 14.5167 463.61 10 465.81 6.7C468.043 3.4 471.626 1.75 476.56 1.75C481.493 1.75 485.06 3.4 487.26 6.7C489.493 10 490.61 14.5167 490.61 20.25C490.61 26.05 489.493 30.6 487.26 33.9C485.06 37.2 481.493 38.85 476.56 38.85C471.626 38.85 468.043 37.2 465.81 33.9C463.61 30.6 462.51 26.05 462.51 20.25ZM482.21 20.25C482.21 16.8833 481.843 14.3 481.11 12.5C480.376 10.6667 478.86 9.75 476.56 9.75C474.26 9.75 472.743 10.6667 472.01 12.5C471.276 14.3 470.91 16.8833 470.91 20.25C470.91 22.5167 471.043 24.4 471.31 25.9C471.576 27.3667 472.11 28.5667 472.91 29.5C473.743 30.4 474.96 30.85 476.56 30.85C478.16 30.85 479.36 30.4 480.16 29.5C480.993 28.5667 481.543 27.3667 481.81 25.9C482.076 24.4 482.21 22.5167 482.21 20.25ZM495.127 20.25C495.127 14.5167 496.227 10 498.427 6.7C500.66 3.4 504.244 1.75 509.177 1.75C514.11 1.75 517.677 3.4 519.877 6.7C522.11 10 523.227 14.5167 523.227 20.25C523.227 26.05 522.11 30.6 519.877 33.9C517.677 37.2 514.11 38.85 509.177 38.85C504.244 38.85 500.66 37.2 498.427 33.9C496.227 30.6 495.127 26.05 495.127 20.25ZM514.827 20.25C514.827 16.8833 514.46 14.3 513.727 12.5C512.994 10.6667 511.477 9.75 509.177 9.75C506.877 9.75 505.36 10.6667 504.627 12.5C503.894 14.3 503.527 16.8833 503.527 20.25C503.527 22.5167 503.66 24.4 503.927 25.9C504.194 27.3667 504.727 28.5667 505.527 29.5C506.36 30.4 507.577 30.85 509.177 30.85C510.777 30.85 511.977 30.4 512.777 29.5C513.61 28.5667 514.16 27.3667 514.427 25.9C514.694 24.4 514.827 22.5167 514.827 20.25ZM527.044 11.7C527.044 9 527.811 6.91667 529.344 5.45C530.911 3.98333 532.927 3.25 535.394 3.25C537.861 3.25 539.861 3.98333 541.394 5.45C542.927 6.91667 543.694 9 543.694 11.7C543.694 14.4 542.927 16.4833 541.394 17.95C539.861 19.4167 537.861 20.15 535.394 20.15C532.927 20.15 530.911 19.4167 529.344 17.95C527.811 16.4833 527.044 14.4 527.044 11.7ZM560.994 3.8L541.744 39H533.494L552.744 3.8H560.994ZM535.344 8.25C533.744 8.25 532.944 9.4 532.944 11.7C532.944 13.9667 533.744 15.1 535.344 15.1C536.111 15.1 536.711 14.8167 537.144 14.25C537.577 13.6833 537.794 12.8333 537.794 11.7C537.794 9.4 536.977 8.25 535.344 8.25ZM550.844 31.1C550.844 28.4 551.611 26.3167 553.144 24.85C554.677 23.3833 556.677 22.65 559.144 22.65C561.611 22.65 563.611 23.3833 565.144 24.85C566.677 26.3167 567.444 28.4 567.444 31.1C567.444 33.8 566.677 35.8833 565.144 37.35C563.611 38.8167 561.611 39.55 559.144 39.55C556.677 39.55 554.677 38.8167 553.144 37.35C551.611 35.8833 550.844 33.8 550.844 31.1ZM559.094 27.65C558.327 27.65 557.727 27.9333 557.294 28.5C556.894 29.0667 556.694 29.9333 556.694 31.1C556.694 33.3667 557.494 34.5 559.094 34.5C559.861 34.5 560.461 34.2167 560.894 33.65C561.327 33.0833 561.544 32.2333 561.544 31.1C561.544 29.9667 561.327 29.1167 560.894 28.55C560.461 27.95 559.861 27.65 559.094 27.65Z" fill="white"/>
</svg>
